Poster: 
http://imgh.us/294219,xcitefun-bol-bachchan-poster.jpg

Info:
Format : AVI
Format/Info : Audio Video Interleave
File size : 699 MiB
Duration : 2h 24mn
Overall bit rate : 675 Kbps

Video
ID : 0
Format : MPEG-4 Visual
Format profile : Advanced Simple@L5
Format settings, BVOP : 2
Format settings, QPel : Yes
Format settings, GMC : No warppoints
Format settings, Matrix : Default (H.263)
Codec ID : XVID
Codec ID/Hint : XviD
Duration : 2h 24mn
Bit rate : 569 Kbps
Width : 640 pixels
Height : 272 pixels
Display aspect ratio : 2.35:1
Frame rate : 23.976 fps
Color space : YUV
Chroma subsampling : 4:2:0
Bit depth : 8 bits
Scan type : Progressive
Compression mode : Lossy
Bits/(Pixel*Frame) : 0.136
Stream size : 589 MiB (84%)
Writing library : XviD 1.2.1 (UTC 2008-12-04)

Audio
ID : 1
Format : MPEG Audio
Format version : Version 1
Format profile : Layer 3
Mode : Joint stereo
Mode extension : MS Stereo
Codec ID : 55
Codec ID/Hint : MP3
Duration : 2h 24mn
Bit rate mode : Constant
Bit rate : 96.0 Kbps
Channel(s) : 2 channels
Sampling rate : 32.0 KHz
Compression mode : Lossy
Stream size : 99.4 MiB (14%)
Alignment : Aligned on interleaves
Interleave, duration : 36 ms (0.86 video frame)
Interleave, preload duration : 216 ms
Title : 1cd T80 2_0ch 384Kbps DELAY 0ms
Writing library : LAME3.90.3


SCREENS: 
http://imgh.us/gZxCa.jpg 
http://imgh.us/izhGJ.jpg 
http://imgh.us/Lt3CK.jpg 
http://imgh.us/WgcA.jpg 
http://imgh.us/vrPUX.jpg 
http://imgh.us/SFzyE.jpg 
http://imgh.us/AQ7fd.jpg